<?xml version="1.0" encoding="utf-8"?>
<svg id="master-artboard" viewBox="0 0 250 250" version="1.1" xmlns="http://www.w3.org/2000/svg" x="0px" y="0px" style="enable-background:new 0 0 250 250;" width="250px" height="250px">

<path d="M 206.800003 203.199997 A 81.400002 19.9 0 0 1 125.400002 223.099997 A 81.400002 19.9 0 0 1 44 203.199997 A 81.400002 19.9 0 0 1 125.400002 183.299997 A 81.400002 19.9 0 0 1 206.800003 203.199997 Z" class="st0" style="fill: rgb(221, 221, 221);" transform="matrix(1, 0, 0, 1, 0, 0)"/><path class="st1" d="M222.6,163.1c-11.4-10.6-11.3-22.7-11.1-35.5c0.1-5,0.1-10.1-0.5-15.2c-1-7.5-5-14.1-11.5-19.1&#10;&#9;&#9;c-3.7-2.8-7.2-4.4-8.8-5c-5.3-5.2-13.1-7.8-23.4-8l-0.1,0l-0.1,0c-0.1,0-0.8,0.1-2.1,0.2c-5,0.2-10,0.8-14.7,0.8&#10;&#9;&#9;c-1.9,0-3.9,0-5.8,0.1c-12.1,0-25.9-1.1-33.2-5.3c-0.1-0.1-0.2-0.2-0.2-0.3c1.3-8.2,0.8-16.9-5.2-21.6c1.1-3,5.2-14.6,3.1-22.9&#10;&#9;&#9;c-0.1-0.8-0.8-5.2-3.7-6.2c-1.9-0.7-4.1,0.2-6.6,2.6c-0.7,0.5-6.6,4.8-11.5,11.1c-3-1.1-15.5-4.7-24.3,0.8&#10;&#9;&#9;c-4.9-6.3-10.7-10.5-11.4-11c-2.5-2.4-4.7-3.3-6.6-2.6c-3,1.1-3.6,5.5-3.7,6.2C39,41,43.5,53.2,44.4,55.6&#10;&#9;&#9;c-0.9,1.9-4.2,9.7-0.4,18.9c0.2,0.7,1.9,6.3,4.9,12.4c0.5,4,3.7,26.5,14,40.3c0.9,3.8,9.2,37,10.1,43.4l0,0.1&#10;&#9;&#9;c1.3,5.9,4.3,21.8,2.2,25.9c-0.4,0.5-2.7,2.9-5.5,4.4c-0.6,0.3-6.3,3-6.3,8.6c0,0.3-0.1,1.2,0.5,2c0.6,0.8,1.6,1.4,3.1,1.6&#10;&#9;&#9;c0.1,0.2,0.2,0.3,0.4,0.5c0.7,0.8,1.8,1.2,3.1,1.2c0.6,0,1.2-0.1,1.8-0.2c0.5,0.2,1,0.3,1.7,0.3c0.7,0,1.6-0.1,2.5-0.4&#10;&#9;&#9;c0.9,0.1,3.2-0.4,7.5-4.4c0.2-0.2,4.4-4.1,5.7-7.9c0.4-0.9,4.5-9.3,3.5-20.6c0-0.2-1.5-16.5,0.3-31.2c1.3,0.4,2.7,0.6,4.1,0.6&#10;&#9;&#9;c0.9,0,1.8-0.1,2.7-0.3c2.5,12,5.4,29.4,5.7,45.6c0,1.3-0.2,5.2-1.9,7c-0.5,0.6-1.3,1.2-2,1.7c-2.3,1.8-5.3,4-4.6,9&#10;&#9;&#9;c0,0.2,0.3,1.7,1.5,2.6c0.4,0.3,1,0.6,1.9,0.6c0.2,0,0.4,0,0.5,0c0.2,0.3,0.4,0.5,0.7,0.7c0.5,0.4,1.1,0.5,1.7,0.5&#10;&#9;&#9;c0.6,0,1.3-0.2,2-0.5c0,0,0.1,0.1,0.1,0.1c0.6,0.6,1.5,0.9,2.5,0.9c0.5,0,1.1-0.1,1.7-0.2c0.8,0,5-0.4,6.6-4.7&#10;&#9;&#9;c0.5-0.5,2.2-2.7,3.8-5l0-0.1c0.2-0.4,4.8-9,4.2-18.2l0-0.1c0-0.1-0.6-12.7,3.6-41.6c0.4,0,1,0,1.4,0c2.8,0,10.6-0.6,17.4-7.1&#10;&#9;&#9;c1.2,3.3,4.4,10.6,9.2,14.6c0.7,1.4,5.4,10.9,5.6,18.8c0,0.5-0.4,6.9-1.7,10.5c-1.8,1-7.6,4.5-7.1,8c0,0.5-0.1,1.7,0.7,2.7&#10;&#9;&#9;c0.4,0.4,1,1,2.2,1.1c0.1,0.3,0.2,0.7,0.3,1.1c0,0.1,0.5,1.3,1.8,1.7c0.3,0.1,0.6,0.1,0.9,0.1c0.7,0,1.4-0.2,2.2-0.7&#10;&#9;&#9;c0.1,0.1,0.1,0.2,0.2,0.3l0.1,0.1l0.1,0.1c0.6,0.6,1.6,1.3,3,1.3c0.5,0,1-0.1,1.6-0.3c-0.1,0.7-0.1,1.9,0.6,2.9&#10;&#9;&#9;c0.7,1,1.9,1.6,3.6,1.7c0.1,0.4,0.3,1,0.8,1.5c0.8,0.9,2.1,1.3,3.9,1.3c0.2,0,0.4,0,0.6,0c0.3,0.4,0.8,0.8,1.4,1.1&#10;&#9;&#9;c0.7,0.3,1.5,0.5,2.4,0.5c1.2,0,2.5-0.3,4-0.9c0.1,0,11.1-4.3,10.9-14.6c0.1-1.2,2.3-18.9,4.9-25.2c0.1-0.4,3.1-8.2,2-13.7&#10;&#9;&#9;c7.1,7.8,15.7,8.8,19.5,8.8c1.2,0,1.9-0.1,2-0.1l2-0.3L222.6,163.1z" style="fill: rgb(255, 255, 255);" transform="matrix(1, 0, 0, 1, 0, 0)"/><path class="st2" d="M98.5,211.2c0,0,0.1,3.4,3.1,2c0,0,1.5,2.1,3.8,0.3c0,0,4.2,3.9,7.8-1.4c0,0,8.2-10,9.9-25.9&#10;&#9;&#9;c0,0,2.8,14.8-7.6,27.6c0,0-5.2,7.6-9.6,3c0,0-4.1,2.6-4.4-0.9C101.6,215.9,97.5,217.2,98.5,211.2z" style="fill: rgb(198, 198, 198);" transform="matrix(1, 0, 0, 1, 0, 0)"/><path class="st2" d="M92,187.6c0,0-3.4,12.8-9.3,18.1c0,0-8.8,9.4-11.5,3.2l0.1-1l-0.8,1.3v1.1c0,0-3.2,2.4-2-2.7l-0.9,0l-1,2&#10;&#9;&#9;c0,0-2.8-2.9-0.3-5.4c0,0-3.3,3.2-2,6.2l0.7,1.6l1.3-0.1l1.5,0.9l1.8,1.2l1.1-0.3l2.4,0.5l3.1-0.6C76.3,213.6,89.4,210.7,92,187.6z&#10;&#9;&#9;" style="fill: rgb(198, 198, 198);" transform="matrix(1, 0, 0, 1, 0, 0)"/><path class="st2" d="M161.8,196.8c0,0,4.5,1.4,8.7-2.4c0,0,7-5.7,7.5-9.1l-3.9,8.9l-2.6,1.9l-3.6,1.9l-0.3,1.7&#10;&#9;&#9;C167.6,199.7,161.4,202.5,161.8,196.8z" style="fill: rgb(198, 198, 198);" transform="matrix(1, 0, 0, 1, 0, 0)"/><path class="st2" d="M176.2,205.7c0,0,9.4,2.3,13.5-10.3c0,0,3-21.9,8.9-29c0,0-4.6,12.3-4.4,17.4c0,0,1.2,19.1-9.2,23.5&#10;&#9;&#9;C184.9,207.4,175,213.2,176.2,205.7z" style="fill: rgb(198, 198, 198);" transform="matrix(1, 0, 0, 1, 0, 0)"/><path class="st2" d="M73,131.8c0,0,11,19.9,12.9,30.7c0,0,1,7.7,2.9,14c0,0,0.8-13.8,3.4-26.4C92.2,150.2,78.2,140.3,73,131.8z" style="fill: rgb(198, 198, 198);" transform="matrix(1, 0, 0, 1, 0, 0)"/><path class="st2" d="M149.2,139.4c0,0,2.8,2,5.5,3.1c0,0,6,3.4,16.1,13.7l-8-13.2l-3.6-12.1C159.2,130.8,153,129.9,149.2,139.4z" style="fill: rgb(198, 198, 198);" transform="matrix(1, 0, 0, 1, 0, 0)"/><path class="st3" d="M78.4,139.5c0,0,3.6,12.4,13.4,15.3l0.5-5.3C92.3,149.5,80.7,142.4,78.4,139.5z" style="fill: rgb(51, 51, 51);" transform="matrix(1, 0, 0, 1, 0, 0)"/><path class="st3" d="M149.2,144.2c0,0,4.2-2.4,6.4-5.9c0,0,2.2-3,5-2.9l-0.8-4.3c0,0-3.3-3-9.3,5.5l-3.1,3L149.2,144.2z" style="fill: rgb(51, 51, 51);" transform="matrix(1, 0, 0, 1, 0, 0)"/><path class="st4" d="M68.4,86.4c0,0,1.1,10.1,8.9,8c0,0,8-1.5,6.9-8.7c0,0-5.9-0.6-8.9-1C75.3,84.7,69.8,85,68.4,86.4z" style="fill: rgb(244, 140, 140);" transform="matrix(1, 0, 0, 1, 0, 0)"/><path class="st5" d="M70.7,91.1c0,0-1.3-3.3,1.2-4.1c0,0,2.5-1.5,3.5,1.2l0.4,0.1c0,0,1.4-1.9,3.5-1.9c0,0,4,0.6,3.8,3.8l0.8-0.9&#10;&#9;&#9;l0.7-3.5l-2.1-1l-4.4-0.3l-3.7-0.2l-2.7,0.4l-1.9,0.7l-1,1.4v0.6l0.7,1.5L70.7,91.1z" style="fill: rgb(214, 99, 99);" transform="matrix(1, 0, 0, 1, 0, 0)"/><path class="st2" d="M197.5,114.8c0,0,1.9,3.3,1.2,11.5c0,0-0.5,19.9,6.8,27.3l2.8,4.2c0,0-10-6.2-12.2-17.4&#10;&#9;&#9;C196.1,140.5,195,121.6,197.5,114.8z" style="fill: rgb(198, 198, 198);" transform="matrix(1, 0, 0, 1, 0, 0)"/><path class="st2" d="M128.5,145.4c0,0,13.1-1.2,18.9-8.4c0,0,7.6-10.1,11.5-9.2l0.3-7.3c0,0-9.4-0.1-15.1,8.2c0,0-3.7,3.3-11.3,4.4&#10;&#9;&#9;C132.7,133,129,134.8,128.5,145.4z" style="fill: rgb(198, 198, 198);" transform="matrix(1, 0, 0, 1, 0, 0)"/><path class="st2" d="M78.4,139.5c0,0-8.1-9.9-9.1-14.5c0,0-2.4-4.7,6.7,3.6c0,0,3.8,4,5.6,4c0,0,1.8,0,0.6-3.7c0,0-2.2-3.6-1.7-5.6&#10;&#9;&#9;c0,0,1.8,3.2,4.2,4.7c0,0,2.7-0.4,5.1,3.5c0,0,2.3,3.5,4.5,4.1l-0.3-3.5c0,0,3.5,4.6,5,11l1,4.2C100.2,147.3,88.9,148,78.4,139.5z" style="fill: rgb(198, 198, 198);" transform="matrix(1, 0, 0, 1, 0, 0)"/><path class="st2" d="M64.2,90.1c0.4,2.6,3.8,5.5,6.3,6.3c1.9,0.7,4.1,0.6,6,1.1c-1.7,1.3-3.8,2-5.9,1.7c1,0.6,2.7,0.5,3.8,0.6&#10;&#9;&#9;c2,0.1,3.7-0.2,5.6-0.8c3.2-1.1,6.7-3.3,8.2-6.4c-1.1,0.8-2.7,1.7-4,1.9c2.2-0.7,4.5-3.8,5.9-5.6c1.1-1.4,3-5.3,2.1-7.1&#10;&#9;&#9;c-0.7,0.6-1.1,1.8-1.7,2.6c-0.7,0.9-1.5,1.8-2.3,2.6c-0.8,0.8-1.6,1.5-2.6,2c-0.7,0.4-1.4,0.7-2,1.2c-1.1,0.9-1.7,2.1-2.9,3&#10;&#9;&#9;c-1.9,1.3-3.8,2.6-6.1,2.1c-0.9-0.2-1.7-0.8-2.5-1.2c-1.4-0.8-3.2-0.2-4.6-1C66.2,92.2,64.9,91.1,64.2,90.1z" style="fill: rgb(198, 198, 198);" transform="matrix(1, 0, 0, 1, 0, 0)"/><path class="st3" d="M58.3,51.7c0.5-0.7,1-1.4,1.5-2.1c2.7-3.7,7.7-4.6,10.2,0c0.5,0.9,0.8,1.9,1.2,2.8c0.5,1.4,0.7,2.8,1.2,4.2&#10;&#9;&#9;&#9;c-0.2-0.7,1-3.2,1.3-4c0.4-1.3,0.9-2.7,1.6-3.9c1.5-2.4,4.7-4.8,7.7-4.2c5.7,1.2,7.4,6.9,10.3,11.1c0.7,1,1.9,2.3,2.3,3.5&#10;&#9;&#9;&#9;c0.5,1.4-0.7,2.8-0.2,4c0.7,1.9,2.2-1.3,3.5-1.9c4.4-2.1,5.6,5.3,5.9,8.1c0.7,6.4-1.1,12.2-2.9,18.3c-1.7,5.9-2.1,12.3-3.8,18.3&#10;&#9;&#9;&#9;c-0.9,3.2-4.6,7.2-4.6,10.3c4.3-1.1,7.5-11.8,12.3-10.7c5.3,1.2-3.7,12.4-1.6,15.6c1.8-2.3,5.2-8,8.4-8.3&#10;&#9;&#9;&#9;c6.5-0.5,2.3,10.2,1.7,13.4c-0.8,4,0.3,8.5,0.8,12.4c0.6,4.2,0.6,8.6,1.2,12.8c0.9,5.5,3,2.2,5.3-0.2c1-1.1,1.9-1.5,2.4-2.9&#10;&#9;&#9;&#9;c0.4-1,0.1-2.1,0.3-3.2c1.5-8.6,5.2-16.3,6.6-25c0.8-5.2-3.1-9.8-2.3-15c6.6-0.8,8.4,13.9,8.4,18.1c0,3.6-1.1,9.5,0.8,12.8&#10;&#9;&#9;&#9;c2.6,4.3,7.4,0.4,9.7-2.1c1.5-1.5,1.5-3.7,3.1-5c1.9-1.6,4.4-0.7,6.4-2c1.7-1.1,1.5-2.1,1.7-4.1c0.3-2.8,1.4-5.7,3-8.1&#10;&#9;&#9;&#9;c1.5-2.2,4-5.9,7-6.2c3.5-0.2,2.3,3.7,1.9,5.8c-0.6,3.4-0.6,6.4,0.5,9.7c1.5,4.3,4.1,8.3,7.9,11c2.4,1.7,8.9,3.2,11.9,2.5&#10;&#9;&#9;&#9;c2.1-0.5,2.8-2,3.5-4c1.2-3.6,1.6-8.2,2.3-12c0.9-4.9,1.8-9.9,1.6-14.9c-0.2-3.4-1.3-11.4-4.9-13c-0.6-2.4-4.5-5.3-6.4-6.8&#10;&#9;&#9;&#9;c-2.4-1.9-5.1-3.6-8-4.6c-8.9-3-19.6-0.8-28.7-0.8c-4.8,0-9.7,0.3-14.4,0.7c-4.6,0.4-8-0.5-12.5-1.5c-3.4-0.7-10.9-1.8-12.6-5.1&#10;&#9;&#9;&#9;c-1.5-3,0.6-7.1-0.3-10.3c-0.9-3.6-3.7-7.5-6.3-10.1c-1.4-1.4-3.3-2.3-4.4-4c-0.7-1.1-0.7-2.2-0.4-3.5c0.4-2.3,1.1-4.9,2.3-6.9&#10;&#9;&#9;&#9;c-1.6,1.6-3.3,4.3-5.9,4.3c-2.6,0-5.4-2-5.3-4.8c0.1-1.4,1.4-2.7,2.3-3.6c1-1,2.2-1.9,3.2-2.9c1.4-1.3,2.9-2.4,4.2-3.8&#10;&#9;&#9;&#9;c1.1-1.2,3.1-2.4,4.8-2c1.6,0.3,1.7,2.1,2.9,2.8c0.8-1.1-0.6-3.6-1.4-4.5c-1.3-1.3-3.2-0.9-4.6-0.1c-1.7,1-3.2,2.4-4.7,3.7&#10;&#9;&#9;&#9;c-1.5,1.2-3.2,2.2-4.5,3.5c-1.3,1.3-2.3,2.6-3.4,4C88.5,38,88,38.8,87.2,39c-3.6,0.8-6.3-1.6-9.7-2c-3-0.4-6.9-0.2-9.7,1.1&#10;&#9;&#9;&#9;c-1.8,0.8-2.5,2.7-4.7,1.9c-1.9-0.7-2.8-3.2-4.2-4.5c-1.6-1.6-3.6-2.3-5.3-3.7c-1.5-1.3-2.4-2.8-4.2-3.6c-1.4-0.6-2.9-1.3-4.4-0.6&#10;&#9;&#9;&#9;c-1.4,0.7-2.2,2.1-2.3,3.6c1-0.8,1.6-2,3.1-1.9c1.2,0.1,1.9,1.2,2.7,2.1c1.6,1.8,3.3,3.4,4.9,5.1c1.4,1.6,3.3,2.9,3.6,5&#10;&#9;&#9;&#9;c0.1,0.8,0.2,1.7,0.1,2.4c-0.1,1.4-0.7,1.9-2.1,2.3c-3,1-5.3-1.1-6.7-3.5c0.7,1.8,2.9,5.7,1.7,7.7c-1.3,2.3-5.4,1.3-6.3-0.8&#10;&#9;&#9;&#9;c-0.1,1.6,1.3,3.7,1.5,5.3c0.3,1.9-1.2,3.5-1.4,5.3c-0.2,1.9,0,4.1,0,6.1c0,2.5,0,5.3,0.7,7.7c0.7,2.2,2.1,4,2.8,6.2&#10;&#9;&#9;&#9;c0.8,2.6,2.1,5,3.4,7.4c1.3,2.5,2.7,4.9,3.9,7.4c1.1,2.2,2.3,4.4,4,6.2c1,1.2,3.4,3.2,5.1,2.9c-0.3-1.6-2.6-2.8-3.7-4&#10;&#9;&#9;&#9;c-1.6-1.7-3-3.9-4-5.9c-1-2.3-2-4.6-2.8-6.9c-2.2-6.4-4.8-12.7-5.2-19.6c-0.1-1.7-0.7-4.7,1.8-4.6c2.2,0,3.9,3.3,5.7,4&#10;&#9;&#9;&#9;c-0.3-2.4-2.6-5.2-1.9-7.7c0.4-1.3,1.6-2.7,2.3-4C56.7,54.1,57.4,52.9,58.3,51.7z" style="fill: rgb(51, 51, 51);" transform="matrix(1, 0, 0, 1, 0, 0)"/><path class="st6" d="M102.7,98.3c0,0,10.6-29.1,0.9-40.4c0,0-1.5-0.9,0.7-3.8C104.3,54.1,119.2,66.3,102.7,98.3z" style="fill: rgb(102, 102, 102);" transform="matrix(1, 0, 0, 1, 0, 0)"/><path class="st6" d="M87.8,39.7c0,0,0.4,3-3.3,2.1c-3.3-0.9-10-2.3-11.4,2.3c-1.1-1.5-2.7-2.8-4.6-3c-1.7-0.2-3,0.6-4.5,0.7&#10;&#9;&#9;c-1.2,0.1-1.2-0.8-0.4-1.6c0.7-0.7,1.8-1,2.7-1.3c1.9-0.7,4.1-1.4,6.1-1.3c1.4,0,2.8,0.4,4.2,0.4C80.4,38.2,84.2,38.8,87.8,39.7z" style="fill: rgb(102, 102, 102);" transform="matrix(1, 0, 0, 1, 0, 0)"/><path class="st3" d="M201.3,127.3c0.7,7.3,0,15.1,3.5,21.8c0.1-3-0.9-6.5-0.1-9.3c0.5,5.6,3.1,12,7.7,15.5&#10;&#9;&#9;&#9;c-2.4-5.1-3.9-10.9-3-16.4c0.7-5,0.8-10.1,1.2-15.1c0.5-5.4,0.9-11.1-1.2-16.2c-1.4-3.6-4.5-6.6-7-9.4c-1.9-2.1-7.9-8.2-11.2-6.8&#10;&#9;&#9;&#9;c-3.7,1.6-0.4,6.9,0.9,9c1,1.6,2.2,3.5,3.7,4.7c1.2,1,2.5,1.4,3.4,2.6C202.7,112.5,200.7,121.8,201.3,127.3z" style="fill: rgb(51, 51, 51);" transform="matrix(1, 0, 0, 1, 0, 0)"/><path class="st6" d="M108.8,82.8c0,0,25.4,9.2,45.8,4c0,0,38.5-6.2,42.5,23.7c0,0,3.7-23.5-22.1-28.5l-7.4-0.5c0,0-41,4.7-57.3-5.1&#10;&#9;&#9;L108.8,82.8z" style="fill: rgb(102, 102, 102);" transform="matrix(1, 0, 0, 1, 0, 0)"/><path class="st3" d="M51.7,90.1c1.1,5.1,4,11.3,6.3,16c1.9,4.1,6,6.4,7.6,10.5c-1.7-0.7-3.8-1.4-5.3-2.5&#10;&#9;&#9;&#9;c-4.8-3.9-6.9-10.7-8.2-16.7" style="fill: rgb(51, 51, 51);" transform="matrix(1, 0, 0, 1, 0, 0)"/><path d="M67.6,132.4c-15-13.2-18.7-44.9-18.8-46.1l2.2,1.4c0,0.3,4.3,33.3,18.7,46L67.6,132.4z" transform="matrix(1, 0, 0, 1, 0, 0)"/><path d="M67.7,213.4c-1.8-0.2-3.1-0.8-3.8-1.7c-0.6-0.8-0.6-1.7-0.5-2c0.1-5.6,5.7-8.4,6.3-8.6c2.8-1.5,5.1-4,5.5-4.4&#10;&#9;&#9;&#9;c2.1-4.1-0.9-20.1-2.2-25.9l0-0.1c-1-6.8-10.1-43.4-10.2-43.8l2.7,2.5c0.4,1.5,8.3,34,9.4,40.9c0.5,2.4,4.9,22.1,1.9,27.3l0,0.1&#10;&#9;&#9;&#9;l-0.1,0.1c-0.1,0.1-2.7,3.1-6.2,5l-0.1,0c-0.1,0-5.2,2.4-5.2,6.9v0.1l0,0.1c0,0,0,0.3,0.2,0.6c0.4,0.5,1.2,0.8,2.4,0.9L67.7,213.4&#10;&#9;&#9;&#9;z" transform="matrix(1, 0, 0, 1, 0, 0)"/><path d="M70.4,214.9c-1.3,0-2.4-0.4-3.1-1.2c-2-2.1-0.7-6.1-0.6-6.5l1.7-1.3l1.3-0.5l-1.2,2.4c-0.3,0.8-0.9,3.5,0.1,4.6&#10;&#9;&#9;&#9;c0.8,0.8,2.5,0.6,3.8,0.2l0.5,1.9C72,214.8,71.2,214.9,70.4,214.9z" transform="matrix(1, 0, 0, 1, 0, 0)"/><path d="M73.9,215c-1,0-1.9-0.3-2.6-0.8c-2-1.7-1.6-5.2-1.5-5.3l1.7-1.4l1.5-0.7l-1.3,2.4c-0.1,0.7-0.1,2.8,0.9,3.6&#10;&#9;&#9;&#9;c0.8,0.7,2.3,0.4,3.4,0l0.3-0.1l0.2,0.1c0,0,0,0,0,0c0.3,0,2-0.2,6-3.9c0,0,4.1-3.9,5.3-7.2l0.1-0.1c0-0.1,4.3-8.5,3.3-19.6&#10;&#9;&#9;&#9;c0-0.2-1.5-17.3,0.4-32.4l1.9,0.2c-1.9,14.9-0.4,31.9-0.4,32c1.1,11.3-3,19.8-3.5,20.6c-1.4,3.8-5.6,7.7-5.7,7.9&#10;&#9;&#9;&#9;c-4.3,4-6.6,4.5-7.5,4.4C75.4,214.8,74.6,215,73.9,215z" transform="matrix(1, 0, 0, 1, 0, 0)"/><path d="M97.5,151c-10.8,0-19.8-12.2-20.2-12.8l-1.2-2.8c0.1,0.1,13.5,16.3,24.7,13.2l0.5,1.9C99.9,150.9,98.7,151,97.5,151z" transform="matrix(1, 0, 0, 1, 0, 0)"/><path d="M100.6,217.3c-0.9,0-1.5-0.3-1.9-0.6c-1.2-0.9-1.5-2.4-1.5-2.6c-0.6-5,2.3-7.3,4.6-9c0.8-0.6,1.5-1.1,2-1.7&#10;&#9;&#9;&#9;c1.7-1.9,2-5.7,1.9-7c-0.5-28.5-9.1-60.5-9.2-60.8l1.8,3.9c0.1,0.3,8.8,28.1,9.3,56.9c0,0.2,0.1,5.5-2.4,8.4&#10;&#9;&#9;&#9;c-0.7,0.7-1.5,1.3-2.3,2c-2.3,1.7-4.4,3.3-3.9,7.3c0,0.2,0.2,0.9,0.7,1.2c0.3,0.2,0.8,0.3,1.3,0.1l0.4,1.9&#10;&#9;&#9;&#9;C101.2,217.3,100.9,217.3,100.6,217.3z" transform="matrix(1, 0, 0, 1, 0, 0)"/><path d="M103.6,218.5c-0.7,0-1.2-0.2-1.7-0.5c-1.7-1.2-1.6-3.9-1.5-4.4c-0.1-3.8,3.3-5.2,3.4-5.2l1.6-0.8l-0.5,0.6l-0.4,0.4&#10;&#9;&#9;&#9;c-0.1,0-2.3,2.6-2.2,5l0,0.1l0,0.1c-0.1,0.7,0,2.3,0.7,2.7c0.5,0.4,1.5,0.1,2.1-0.2l0.8,1.7C105,218.3,104.3,218.5,103.6,218.5z" transform="matrix(1, 0, 0, 1, 0, 0)"/><path d="M108.2,219c-1,0-1.9-0.3-2.5-0.9c-1.3-1.1-1.2-2.9-1.1-3.3c0-2.7,3.5-4.5,3.9-4.7l1.3-0.4c-0.7,0.4-3.3,3.8-3.3,5.1l0,0.1&#10;&#9;&#9;&#9;c0,0-0.1,1.2,0.5,1.7c0.6,0.5,1.7,0.4,2.5,0.2l0.1,0h0.1c0.1,0,3.7-0.1,5-3.6l0.1-0.2l0.1-0.1c0,0,2-2.3,3.7-4.9&#10;&#9;&#9;&#9;c0.3-0.5,4.5-8.7,3.9-17.1c-0.1-0.8-1.3-12.5,5.8-48.6l1.4-4.1c-6,36.7-5.3,52.4-5.3,52.5l0,0.1c0.7,9.3-4,17.9-4.2,18.2l0,0.1&#10;&#9;&#9;&#9;c-1.5,2.4-3.3,4.5-3.8,5c-1.7,4.3-5.8,4.7-6.6,4.7C109.2,218.9,108.7,219,108.2,219z" transform="matrix(1, 0, 0, 1, 0, 0)"/><path d="M129.4,149.1c-0.6,0-1.6,0-1.7,0l0.3-1.9l0.1-0.1l0.4,0.1c0.1,0,11.3,0.8,19.2-9c7-8.7,8.6-8.9,11-8.5&#10;&#9;&#9;&#9;c0.3,0.1,0.6,0.1,1,0.1v1.9c-0.5,0-0.9-0.1-1.3-0.1c-1.4-0.2-2.6-0.4-9.2,7.9C142,148.3,132.6,149.1,129.4,149.1z" transform="matrix(1, 0, 0, 1, 0, 0)"/><path d="M170,206.1c-1.7-0.1-3-0.7-3.7-1.7c-0.9-1.3-0.6-3-0.5-3.5c0.1-3.7,5.7-6.2,7.2-6.8l2.4-4c2.2-4.6,1.7-11.2,1.7-11.3&#10;&#9;&#9;&#9;l0-0.1c-0.2-12.4-11.5-28.9-12.1-29.7c-8.3-10-6.4-27.2-6.3-28l1.2-4.3c0,0.2-1.2,21.8,6.6,31.1l0.1,0.1&#10;&#9;&#9;&#9;c0.5,0.7,12.2,17.6,12.5,30.8c0,0.6,0.5,7.3-1.9,12.3l0,0.1l-2.7,4.7l-0.3,0.1c-1.6,0.6-6.3,2.9-6.3,5.3v0.2l0,0.1&#10;&#9;&#9;&#9;c0,0-0.4,1.2,0.2,2c0.4,0.5,1.1,0.8,2.2,0.9L170,206.1z" transform="matrix(1, 0, 0, 1, 0, 0)"/><path d="M174.6,208.9c-1.8,0-3.1-0.4-3.9-1.3c-0.8-0.9-0.8-1.9-0.8-2.2c-0.2-3.9,3.3-5.9,3.4-6l1.7-0.7c-0.1,0.1-3.4,3.9-3.2,6.6&#10;&#9;&#9;&#9;l0,0.1l0,0.1l0,0c0,0,0,0.4,0.3,0.8c0.5,0.5,1.6,0.8,3,0.7l0.1,1.9C175,208.9,174.8,208.9,174.6,208.9z" transform="matrix(1, 0, 0, 1, 0, 0)"/><path d="M178.9,210.4c-0.9,0-1.7-0.2-2.4-0.5c-1.5-0.7-2-2-2-2.1l0-0.1l0-0.1c-0.4-4.6,3.7-6.8,3.9-6.9l1.7-0.4l0.1,0l-0.1,0&#10;&#9;&#9;&#9;c-0.1,0.1-3.8,3.8-3.6,6.9c0.1,0.2,0.4,0.6,1,0.9c1.1,0.5,2.8,0.3,4.8-0.4c0.1,0,9.9-3.9,9.6-12.8l0-0.1l0-0.1&#10;&#9;&#9;&#9;c0.1-0.8,2.2-19.1,5.1-25.8c0-0.1,3.4-8.9,1.5-13.6l0,0c-0.3-0.7-6.2-17.9-3.4-32.8l0-0.1c0.1-0.2,5.2-18.4-3.5-30.1&#10;&#9;&#9;&#9;c-4.8-6.5-13-9.8-24.2-10c-2.5,0.3-44.5,4.5-58.3-5.3l1.1-1.6c13.4,9.4,56.6,5,57.1,5l0.1,0l0.1,0c12,0.2,20.6,3.8,25.8,10.8&#10;&#9;&#9;&#9;c9.1,12.3,4.2,30.5,3.8,31.7c-2.7,14.3,3.1,31.1,3.3,31.8c2.2,5.4-1.4,14.7-1.5,15.1c-2.7,6.3-4.8,24-4.9,25.2&#10;&#9;&#9;&#9;c0.2,10.3-10.8,14.5-10.9,14.6C181.4,210.2,180.1,210.4,178.9,210.4z" transform="matrix(1, 0, 0, 1, 0, 0)"/><path d="M58.9,101.1C50,93.7,44.4,75.8,44,74.5c-4.3-10.3,0.4-19,0.6-19.3l1.8,0.1c0,0.1-4.6,9.2-0.6,18.6l0,0.1&#10;&#9;&#9;&#9;c0.1,0.2,7,22,15.7,29.1L58.9,101.1z" transform="matrix(1, 0, 0, 1, 0, 0)"/><path d="M105.3,95l-3,4.7c0.1-0.3,14.8-35.3,1.9-44.1l-0.6-0.4l0.3-0.7c0.1-0.1,5.5-13.7,3.3-22.5l0-0.1c-0.1-1.1-0.8-4.1-2.5-4.7&#10;&#9;&#9;&#9;c-1.4-0.5-3.3,0.9-4.6,2.2l-0.1,0.1c-0.1,0-6.6,4.6-11.6,11.3l-0.5,0.6L87.1,41c-0.1-0.1-15.7-5.7-24.7,1.4l-1-1.6&#10;&#9;&#9;&#9;c8.9-7,22.6-3,25.8-1.8c4.9-6.4,10.8-10.6,11.5-11.1c2.5-2.4,4.7-3.3,6.6-2.6c3,1.1,3.6,5.5,3.7,6.2c2.1,8.3-2,19.9-3.1,22.9&#10;&#9;&#9;&#9;C119.1,64.6,105.8,93.7,105.3,95z" transform="matrix(1, 0, 0, 1, 0, 0)"/><path d="M44.5,56c-0.2-0.6-5.7-14.2-3.4-23.6c0.1-0.8,0.8-5.2,3.7-6.2c1.9-0.7,4.1,0.2,6.6,2.6c0.7,0.5,7,5,12,11.7l-1.5,1.1&#10;&#9;&#9;&#9;c-5-6.7-11.5-11.3-11.6-11.3l-0.1-0.1c-1.3-1.3-3.2-2.7-4.6-2.2c-1.6,0.6-2.4,3.7-2.5,4.7l0,0.1c-2.2,8.8,3.2,22.4,3.3,22.5&#10;&#9;&#9;&#9;L44.5,56z" transform="matrix(1, 0, 0, 1, 0, 0)"/><path d="M84.9,59.5c-1.1,0-2.8-0.4-4.5-2.2L80,56.9l3-2.7c0.2-0.2,1.1-1.1,2.4-1.1c1.3,0,2.5,0.9,3.6,2.6l0.1,0.2l0,0.2&#10;&#9;&#9;&#9;c0,0.1-0.6,2.4-2.5,3C86.3,59.3,85.8,59.5,84.9,59.5z M81.7,56.9c2.4,2.2,4.4,1.2,4.4,1.2l0.1,0c1.1-0.3,1.6-1.5,1.7-2&#10;&#9;&#9;&#9;c-0.8-1.2-1.6-1.9-2.5-1.9c-0.9,0-1.6,0.7-1.6,0.7l0,0L81.7,56.9z" transform="matrix(1, 0, 0, 1, 0, 0)"/><path d="M155.9,197.7c-1.3-0.1-2.1-0.6-2.5-1.1c-0.8-1-0.8-2.2-0.7-2.7c-0.4-3.5,5.3-7,7.1-8c1.3-3.6,1.7-10,1.7-10.5&#10;&#9;&#9;&#9;c-0.2-7.9-4.9-17.4-5.6-18.8c-6.2-5.2-9.6-15.8-9.8-16.3l1.8-0.6c0,0.1,3.5,10.8,9.3,15.5l0.2,0.1l0.1,0.2&#10;&#9;&#9;&#9;c0.2,0.4,5.7,10.9,5.9,19.9v0l0,0c0,0.3-0.4,7.5-2,11.5l-0.1,0.3l-0.3,0.2c-2.9,1.5-6.8,4.5-6.4,6.3l0,0.2l0,0.2&#10;&#9;&#9;&#9;c0,0.2-0.1,0.9,0.3,1.4c0.2,0.3,0.6,0.4,1,0.4L155.9,197.7z" transform="matrix(1, 0, 0, 1, 0, 0)"/><path d="M158.6,200.6c-0.3,0-0.6,0-0.9-0.1c-1.3-0.4-1.8-1.6-1.8-1.7c-1.5-3.9,1.3-6.9,3-8l0.9-0.6l1.1-0.5l-0.6,0.6&#10;&#9;&#9;&#9;c-0.1,0.1-3.9,4.3-2.5,7.8c0,0,0.2,0.5,0.6,0.6c0.4,0.1,1.1-0.1,1.8-0.5l1.1,1.6C160.3,200.3,159.4,200.6,158.6,200.6z" transform="matrix(1, 0, 0, 1, 0, 0)"/><path d="M164.1,201.8c-1.4,0-2.5-0.7-3-1.3l-0.1-0.1l-0.1-0.1c-2.2-3.8-0.1-6.8,1.3-7.8l1.5-0.5l1.1-0.2l-1.6,1.8&#10;&#9;&#9;&#9;c-0.3,0.2-2.3,2.5-0.6,5.6c0.4,0.4,2.2,1.1,4.1-0.6l0.8,1.6C166.3,201.4,165.2,201.8,164.1,201.8z" transform="matrix(1, 0, 0, 1, 0, 0)"/><path d="M220.2,164.9c-4.4,0-15.2-1.3-22.7-13l1.6-1c6.8,10.8,16.4,12.2,20.6,12.2c-10.5-10.9-10.3-23.3-10.1-35.3&#10;&#9;&#9;&#9;c0.1-4.9,0.1-10-0.5-14.9c-2.2-16.9-19.8-22.8-19.9-22.9l0.6-1.8c0.2,0.1,4.8,1.6,9.7,5.3c6.6,5,10.6,11.6,11.5,19.1&#10;&#9;&#9;&#9;c0.7,5.1,0.6,10.2,0.5,15.2c-0.2,12.8-0.3,24.8,11.1,35.5l1.5,1.4l-2,0.3C222.1,164.8,221.4,164.9,220.2,164.9z" transform="matrix(1, 0, 0, 1, 0, 0)"/><path d="M 87 56.299999 A 2 2 0 0 1 85 58.299999 A 2 2 0 0 1 83 56.299999 A 2 2 0 0 1 85 54.299999 A 2 2 0 0 1 87 56.299999 Z" transform="matrix(1, 0, 0, 1, 0, 0)"/><path d="M63.2,60.5L63.2,60.5c-0.8,0-1.4-0.2-1.6-0.3c-2-0.6-2.5-2.9-2.5-3l0-0.2l0.1-0.2c1-1.7,2.2-2.6,3.6-2.6&#10;&#9;&#9;&#9;c1.3,0,2.3,0.9,2.4,1.1l3,2.7l-0.4,0.4C66,60.1,64.3,60.5,63.2,60.5z M60.3,57.1c0.2,0.5,0.6,1.7,1.7,2l0.1,0c0,0,2,0.9,4.4-1.2&#10;&#9;&#9;&#9;L64.3,56c0,0-0.7-0.7-1.6-0.7C61.9,55.3,61.1,55.9,60.3,57.1z" transform="matrix(1, 0, 0, 1, 0, 0)"/><path d="M 65.300001 57.299999 A 2.1 2.1 0 0 1 63.200001 59.399999 A 2.1 2.1 0 0 1 61.100001 57.299999 A 2.1 2.1 0 0 1 63.200001 55.199999 A 2.1 2.1 0 0 1 65.300001 57.299999 Z" transform="matrix(1, 0, 0, 1, 0, 0)"/><path d="M70.6,72.8c0,0,4.9-1.3,8.2-0.3c0,0,3.8,2-1.3,5.1c0,0-3.8,1.4-6.7-0.9C70.8,76.8,67,74.4,70.6,72.8z" transform="matrix(1, 0, 0, 1, 0, 0)"/><path d="M60.6,80.6c0.5,0.5,1,0.9,1.6,1.3c0.3,0.2,0.5,0.4,0.8,0.6c0.3,0.2,0.6,0.4,0.9,0.5c0.3,0.2,0.6,0.3,0.9,0.5&#10;&#9;&#9;&#9;c0.3,0.1,0.6,0.3,0.9,0.4c0.3,0.1,0.6,0.2,0.9,0.3c0.3,0.1,0.6,0.2,0.9,0.2c0.3,0.1,0.6,0.1,0.9,0.1c0.2,0,0.3,0,0.5,0&#10;&#9;&#9;&#9;c0.2,0,0.3,0,0.5,0l0.5,0c0.2,0,0.3,0,0.5,0c0.3,0,0.6-0.1,0.9-0.1c0.3-0.1,0.6-0.1,0.9-0.2c0.2,0,0.3-0.1,0.5-0.1l0.4-0.2&#10;&#9;&#9;&#9;c0.3-0.1,0.6-0.3,0.9-0.4c0.3-0.1,0.6-0.3,0.9-0.4l0.4-0.2l0.4,0.1c0.3,0.1,0.7,0.2,1,0.3c0.3,0.1,0.7,0.2,1,0.2&#10;&#9;&#9;&#9;c0.7,0.1,1.4,0.2,2.1,0.3c0.3,0,0.7,0.1,1,0.1c0.3,0,0.7,0,1,0c0.3,0,0.7,0,1-0.1c0.3,0,0.7-0.1,1-0.1c0.2,0,0.3-0.1,0.5-0.1&#10;&#9;&#9;&#9;c0.2,0,0.3-0.1,0.5-0.1c0.3-0.1,0.6-0.2,1-0.4l0.5-0.2c0.2-0.1,0.3-0.2,0.4-0.3c0.2-0.1,0.3-0.2,0.4-0.3c0.1-0.1,0.3-0.2,0.4-0.3&#10;&#9;&#9;&#9;c0.3-0.2,0.5-0.5,0.8-0.7c0.2-0.3,0.5-0.5,0.6-0.8c0.1-0.1,0.2-0.3,0.3-0.5l0.3-0.5c0.2-0.3,0.3-0.7,0.5-1c0,0.2-0.1,0.4-0.1,0.6&#10;&#9;&#9;&#9;c0,0.2-0.1,0.4-0.1,0.6l-0.2,0.5c-0.1,0.2-0.1,0.4-0.2,0.5L89.2,81c0,0.1-0.1,0.2-0.1,0.3c-0.1,0.2-0.2,0.3-0.3,0.5&#10;&#9;&#9;&#9;c-0.2,0.3-0.4,0.7-0.7,1c-0.1,0.2-0.3,0.3-0.4,0.4c-0.1,0.1-0.3,0.3-0.4,0.4c-0.2,0.1-0.3,0.3-0.5,0.4l-0.5,0.3&#10;&#9;&#9;&#9;c-0.3,0.2-0.7,0.4-1.1,0.5c-0.2,0.1-0.4,0.2-0.6,0.2c-0.2,0.1-0.4,0.1-0.6,0.2c-0.4,0.1-0.8,0.2-1.2,0.3c-0.4,0.1-0.8,0.1-1.2,0.2&#10;&#9;&#9;&#9;c-0.4,0-0.8,0.1-1.2,0.1c-0.4,0-0.8,0-1.2,0c-0.8-0.1-1.5-0.1-2.3-0.3c-0.4-0.1-0.8-0.2-1.1-0.2c-0.4-0.1-0.7-0.2-1.1-0.3l0.8-0.1&#10;&#9;&#9;&#9;c-0.3,0.2-0.6,0.3-1,0.5c-0.3,0.1-0.7,0.3-1,0.4l-0.5,0.2C73,85.9,72.8,86,72.6,86c-0.4,0.1-0.7,0.2-1.1,0.2&#10;&#9;&#9;&#9;c-0.4,0-0.7,0.1-1.1,0.1c-0.2,0-0.4,0-0.6,0l-0.6,0c-0.4,0-0.7-0.1-1.1-0.1c-0.4-0.1-0.7-0.2-1.1-0.3c-0.4-0.1-0.7-0.2-1-0.4&#10;&#9;&#9;&#9;c-0.3-0.1-0.7-0.3-1-0.5c-0.3-0.2-0.6-0.4-0.9-0.6c-0.3-0.2-0.6-0.4-0.9-0.6c-0.5-0.5-1.1-1-1.5-1.5c-0.2-0.3-0.4-0.5-0.6-0.8&#10;&#9;&#9;&#9;C60.9,81.2,60.7,80.9,60.6,80.6z" transform="matrix(1, 0, 0, 1, 0, 0)"/><path d="M75.7,95.7c-1.6,0-3-0.5-4.2-1.4c-3.9-2.8-4.8-8.8-4.8-9.1l1.9-0.3c0,0.1,0.9,5.5,4.1,7.8c1.2,0.9,2.6,1.2,4.2,0.9l0.1,0&#10;&#9;&#9;&#9;c0,0,3.1-0.2,5-2.5c1.4-1.6,1.9-3.9,1.6-6.8l1.9-0.2c0.4,3.5-0.3,6.2-2.1,8.3c-2.3,2.7-5.8,3.1-6.3,3.1&#10;&#9;&#9;&#9;C76.6,95.7,76.1,95.7,75.7,95.7z" transform="matrix(1, 0, 0, 1, 0, 0)"/><path d="M69.6,89c0,0-0.8-2.7,3.2-3.9c0,0,1.7-0.7,2.5,2.9c0,0,0.1,0.8,0.7,1.3c0,0,0.5-0.1,0.7-1.4c0,0,0.4-2.9,1.9-2.9&#10;&#9;&#9;&#9;c0,0,4.5,0,5.3,3.6l0.9-4.1l-2.6,0.4L76,83.8l-6.1,1.7l-2.1,0.2L69.6,89z" transform="matrix(1, 0, 0, 1, 0, 0)"/><path class="st2" d="M69.8,57.9c0,0,1.4,3,0,5.9c0,0-2.8,4.9-2.4,6.7c0,0-1.9,0.4-1.1-3.2C67.1,63.7,70.7,63,69.8,57.9z" style="fill: rgb(198, 198, 198);" transform="matrix(1, 0, 0, 1, 0, 0)"/><path d="M47.7,52.1c-1,0-3.8-0.3-5.2-3l0.7-0.4c1.5,2.9,4.7,2.6,4.8,2.6c0.8-0.1,1.4-0.4,1.7-0.9c1-1.8-0.9-6-1.8-7.4l-0.6-1.3&#10;&#9;&#9;&#9;c1.7,2.5,4.6,4.7,6.2,4.6c1.8-0.1,3-1.9,3.2-2.1c0.9-2.3-0.7-4.3-0.8-4.3l-9.3-9.7c-0.6-0.3-1.2-0.4-1.7-0.2c-1.2,0.4-1.8,2-1.8,2&#10;&#9;&#9;&#9;l-0.7-0.3c0-0.1,0.7-1.9,2.3-2.5c0.8-0.3,1.6-0.2,2.4,0.3l0.1,0.1l0.8,0.8l8.6,8.9c0.1,0.1,2.1,2.4,0.9,5.2l0,0&#10;&#9;&#9;&#9;C57.4,44.6,56,47,53.6,47c-1.2,0-2.5-0.5-3.7-1.7c0.7,1.8,1.2,4,0.5,5.4c-0.4,0.8-1.2,1.3-2.3,1.4C48.1,52.1,48,52.1,47.7,52.1z" transform="matrix(1, 0, 0, 1, 0, 0)"/><path d="M103.9,55.2c-5.5-3-5-6.4-4.9-6.8c0.2-1.9,0.8-3.8,1.3-5.3c-3.6,3.6-6.5,2.2-6.8,2c-2.9-1.2-3.3-3.8-3.3-4&#10;&#9;&#9;&#9;c-0.4-3.2,4.3-6.5,4.7-6.8l5.2-4.9c2.1-1.8,3.8-2.4,5.2-1.9c1.6,0.6,2,2.6,2,2.7l-0.1,1.3l-0.2-0.4l-0.3-0.9c0,0-0.5-1.5-1.7-2&#10;&#9;&#9;&#9;c-1.1-0.4-2.6,0.2-4.4,1.8l-5.2,4.9c0,0-4.8,3.3-4.4,6c0,0.1,0.3,2.4,2.8,3.4l0.1,0c0.1,0.1,3.5,1.9,7.5-3.8l0.9-1.2&#10;&#9;&#9;&#9;c0,0-2.2,5.6-2.5,9.1l0,0.1c0,0.1-0.7,3.2,4.5,6L103.9,55.2z" transform="matrix(1, 0, 0, 1, 0, 0)"/><path class="st7" d="M70.6,75.9c0,0-1.9-1.5,0.5-2.5c0,0,5.1-1,7.1-0.4c0,0,0.8,0.6,0,0.7c0,0-6.2-0.2-6.6,0.9c0,0-0.3,0.6,0,1.1&#10;&#9;&#9;C71.7,75.7,71.9,76.7,70.6,75.9z" style="fill: rgb(48, 48, 48);" transform="matrix(1, 0, 0, 1, 0, 0)"/>
</svg>